<mxfile host="app.diagrams.net" modified="2023-09-08T10:28:46.067Z" agent="Mozilla/5.0 (Windows NT 10.0; Win64; x64) AppleWebKit/537.36 (KHTML, like Gecko) Chrome/116.0.0.0 Safari/537.36" etag="sIDqR2ZehroBSRe3vRFa" version="21.7.2" type="github">
  <diagram name="Page-1" id="9aTqNVGHrDx-jmkpX1MH">
    <mxGraphModel dx="1134" dy="557" grid="1" gridSize="10" guides="1" tooltips="1" connect="1" arrows="1" fold="1" page="1" pageScale="1" pageWidth="850" pageHeight="1100" math="0" shadow="0">
      <root>
        <mxCell id="0" />
        <mxCell id="1" parent="0" />
        <mxCell id="L1JH1a1j9gtBSHFALBn6-1" value="" style="image;aspect=fixed;html=1;points=[];align=center;fontSize=12;image=img/lib/azure2/management_governance/Recovery_Services_Vaults.svg;" vertex="1" parent="1">
          <mxGeometry x="350" y="4.35" width="133" height="115.65" as="geometry" />
        </mxCell>
        <mxCell id="L1JH1a1j9gtBSHFALBn6-5" value="" style="image;aspect=fixed;html=1;points=[];align=center;fontSize=12;image=img/lib/azure2/databases/SQL_Database.svg;" vertex="1" parent="1">
          <mxGeometry x="190" y="200" width="60" height="80" as="geometry" />
        </mxCell>
        <mxCell id="L1JH1a1j9gtBSHFALBn6-7" value="" style="image;sketch=0;aspect=fixed;html=1;points=[];align=center;fontSize=12;image=img/lib/mscae/Virtual_Machine.svg;" vertex="1" parent="1">
          <mxGeometry x="576.52" y="200" width="86.96" height="80" as="geometry" />
        </mxCell>
        <mxCell id="L1JH1a1j9gtBSHFALBn6-11" value="VM X1" style="text;strokeColor=none;align=center;fillColor=none;html=1;verticalAlign=middle;whiteSpace=wrap;rounded=0;" vertex="1" parent="1">
          <mxGeometry x="610" y="290" width="60" height="30" as="geometry" />
        </mxCell>
        <mxCell id="L1JH1a1j9gtBSHFALBn6-12" value="SQL DB x 13" style="text;strokeColor=none;align=center;fillColor=none;html=1;verticalAlign=middle;whiteSpace=wrap;rounded=0;" vertex="1" parent="1">
          <mxGeometry x="180" y="290" width="80" height="30" as="geometry" />
        </mxCell>
        <mxCell id="L1JH1a1j9gtBSHFALBn6-14" value="&lt;div&gt;discountmodulemv&lt;/div&gt;&lt;div&gt;model&lt;/div&gt;&lt;div&gt;master&lt;/div&gt;&lt;div&gt;discountmodulemvkfc&lt;/div&gt;&lt;div&gt;standardinventorymvkfc&lt;/div&gt;&lt;div&gt;callcentermvkfc&lt;/div&gt;&lt;div&gt;dms-db&lt;/div&gt;&lt;div&gt;callcentermv&lt;/div&gt;&lt;div&gt;accmastersinglecurrencyhomv&lt;/div&gt;&lt;div&gt;sms&lt;/div&gt;&lt;div&gt;msdb&lt;/div&gt;&lt;div&gt;adms&lt;/div&gt;&lt;div&gt;standardinventorymv&lt;/div&gt;" style="text;strokeColor=none;align=left;fillColor=none;html=1;verticalAlign=middle;whiteSpace=wrap;rounded=0;" vertex="1" parent="1">
          <mxGeometry x="160" y="320" width="150" height="200" as="geometry" />
        </mxCell>
        <mxCell id="L1JH1a1j9gtBSHFALBn6-16" value="DC-01" style="text;strokeColor=none;align=center;fillColor=none;html=1;verticalAlign=middle;whiteSpace=wrap;rounded=0;" vertex="1" parent="1">
          <mxGeometry x="590" y="320" width="60" height="30" as="geometry" />
        </mxCell>
        <mxCell id="L1JH1a1j9gtBSHFALBn6-21" value="" style="endArrow=classic;html=1;rounded=0;exitX=0;exitY=0.8;exitDx=0;exitDy=0;exitPerimeter=0;" edge="1" parent="1">
          <mxGeometry width="50" height="50" relative="1" as="geometry">
            <mxPoint x="338" y="100" as="sourcePoint" />
            <mxPoint x="200" y="200" as="targetPoint" />
          </mxGeometry>
        </mxCell>
        <mxCell id="L1JH1a1j9gtBSHFALBn6-23" value="" style="endArrow=classic;html=1;rounded=0;exitX=0.8;exitY=0.7;exitDx=0;exitDy=0;exitPerimeter=0;" edge="1" parent="1" source="L1JH1a1j9gtBSHFALBn6-1">
          <mxGeometry width="50" height="50" relative="1" as="geometry">
            <mxPoint x="590" y="120" as="sourcePoint" />
            <mxPoint x="620" y="180" as="targetPoint" />
            <Array as="points">
              <mxPoint x="620" y="180" />
            </Array>
          </mxGeometry>
        </mxCell>
      </root>
    </mxGraphModel>
  </diagram>
</mxfile>
